<mxfile host="65bd71144e" scale="1" border="0" disableSvgWarning="true">
    <diagram id="ToHjmqaBVsC4WZOhuRWg" name="第 1 页">
        <mxGraphModel dx="933" dy="592" grid="1" gridSize="10" guides="1" tooltips="1" connect="1" arrows="1" fold="1" page="1" pageScale="1" pageWidth="1200" pageHeight="1920" math="0" shadow="0">
            <root>
                <mxCell id="0"/>
                <mxCell id="1" parent="0"/>
                <mxCell id="20" style="edgeStyle=none;html=1;endArrow=none;endFill=0;" edge="1" parent="1" source="2">
                    <mxGeometry relative="1" as="geometry">
                        <mxPoint x="495.5" y="1320" as="targetPoint"/>
                    </mxGeometry>
                </mxCell>
                <mxCell id="2" value="&lt;font color=&quot;#000000&quot;&gt;快递驿站&lt;/font&gt;" style="sketch=0;pointerEvents=1;shadow=0;dashed=0;html=1;strokeColor=none;labelPosition=center;verticalLabelPosition=bottom;verticalAlign=top;outlineConnect=0;align=center;shape=mxgraph.office.concepts.home;fillColor=#7FBA42;" parent="1" vertex="1">
                    <mxGeometry x="440" y="940" width="111" height="120" as="geometry"/>
                </mxCell>
                <mxCell id="4" value="&lt;font color=&quot;#000000&quot;&gt;取错快递的用户&lt;/font&gt;" style="sketch=0;pointerEvents=1;shadow=0;dashed=0;html=1;strokeColor=none;labelPosition=center;verticalLabelPosition=bottom;verticalAlign=top;outlineConnect=0;align=center;shape=mxgraph.office.users.user;fillColor=#DA4026;" parent="1" vertex="1">
                    <mxGeometry x="629.5" y="1120" width="96" height="90" as="geometry"/>
                </mxCell>
                <mxCell id="5" value="&lt;font color=&quot;#000000&quot;&gt;被取错快递的用户&lt;/font&gt;" style="sketch=0;pointerEvents=1;shadow=0;dashed=0;html=1;strokeColor=none;labelPosition=center;verticalLabelPosition=bottom;verticalAlign=top;outlineConnect=0;align=center;shape=mxgraph.office.users.user;fillColor=#2072B8;" parent="1" vertex="1">
                    <mxGeometry x="265.5" y="1120" width="86" height="90" as="geometry"/>
                </mxCell>
                <mxCell id="6" value="" style="endArrow=classic;html=1;entryX=0.581;entryY=0;entryDx=0;entryDy=0;entryPerimeter=0;fillColor=#a20025;strokeColor=#6F0000;" parent="1" source="2" target="5" edge="1">
                    <mxGeometry relative="1" as="geometry">
                        <mxPoint x="500" y="1090" as="sourcePoint"/>
                        <mxPoint x="600" y="1090" as="targetPoint"/>
                    </mxGeometry>
                </mxCell>
                <mxCell id="7" value="" style="shape=message;html=1;outlineConnect=0;" parent="6" vertex="1">
                    <mxGeometry width="20" height="14" relative="1" as="geometry">
                        <mxPoint x="22" y="-50" as="offset"/>
                    </mxGeometry>
                </mxCell>
                <mxCell id="12" value="通知用户快递被别人取错了" style="edgeLabel;html=1;align=center;verticalAlign=middle;resizable=0;points=[];fontColor=#000000;" parent="6" vertex="1" connectable="0">
                    <mxGeometry x="0.1242" relative="1" as="geometry">
                        <mxPoint as="offset"/>
                    </mxGeometry>
                </mxCell>
                <mxCell id="8" value="" style="endArrow=classic;html=1;fillColor=#1ba1e2;strokeColor=#006EAF;" parent="1" source="2" target="4" edge="1">
                    <mxGeometry relative="1" as="geometry">
                        <mxPoint x="500" y="1090" as="sourcePoint"/>
                        <mxPoint x="600" y="1090" as="targetPoint"/>
                    </mxGeometry>
                </mxCell>
                <mxCell id="9" value="" style="shape=message;html=1;outlineConnect=0;" parent="8" vertex="1">
                    <mxGeometry width="20" height="14" relative="1" as="geometry">
                        <mxPoint x="-41" y="-50" as="offset"/>
                    </mxGeometry>
                </mxCell>
                <mxCell id="13" value="通知该用户错取了别人的快递" style="edgeLabel;html=1;align=center;verticalAlign=middle;resizable=0;points=[];fontColor=#000000;" parent="8" vertex="1" connectable="0">
                    <mxGeometry x="0.1586" y="-3" relative="1" as="geometry">
                        <mxPoint as="offset"/>
                    </mxGeometry>
                </mxCell>
                <mxCell id="21" style="edgeStyle=none;html=1;endArrow=none;endFill=0;" edge="1" parent="1" source="14">
                    <mxGeometry relative="1" as="geometry">
                        <mxPoint x="155.5" y="1320" as="targetPoint"/>
                    </mxGeometry>
                </mxCell>
                <mxCell id="14" value="查看快递出库信息" style="rounded=1;whiteSpace=wrap;html=1;fillColor=#7ebee0;" vertex="1" parent="1">
                    <mxGeometry x="95.5" y="1390" width="120" height="60" as="geometry"/>
                </mxCell>
                <mxCell id="22" style="edgeStyle=none;html=1;exitX=0.5;exitY=0;exitDx=0;exitDy=0;endArrow=none;endFill=0;" edge="1" parent="1" source="15">
                    <mxGeometry relative="1" as="geometry">
                        <mxPoint x="325.33333333333326" y="1320" as="targetPoint"/>
                    </mxGeometry>
                </mxCell>
                <mxCell id="15" value="处理错取快点" style="rounded=1;whiteSpace=wrap;html=1;fillColor=#3d9acc;" vertex="1" parent="1">
                    <mxGeometry x="265.5" y="1390" width="120" height="60" as="geometry"/>
                </mxCell>
                <mxCell id="23" style="edgeStyle=none;html=1;exitX=0.5;exitY=0;exitDx=0;exitDy=0;endArrow=none;endFill=0;" edge="1" parent="1" source="16">
                    <mxGeometry relative="1" as="geometry">
                        <mxPoint x="496" y="1320" as="targetPoint"/>
                    </mxGeometry>
                </mxCell>
                <mxCell id="16" value="查询快递信息" style="rounded=1;whiteSpace=wrap;html=1;fillColor=#007dbc;" vertex="1" parent="1">
                    <mxGeometry x="435.5" y="1390" width="120" height="60" as="geometry"/>
                </mxCell>
                <mxCell id="24" style="edgeStyle=none;html=1;exitX=0.5;exitY=0;exitDx=0;exitDy=0;endArrow=none;endFill=0;" edge="1" parent="1" source="17">
                    <mxGeometry relative="1" as="geometry">
                        <mxPoint x="665.3333333333333" y="1320" as="targetPoint"/>
                    </mxGeometry>
                </mxCell>
                <mxCell id="17" value="管理用户信息" style="rounded=1;whiteSpace=wrap;html=1;fillColor=#21ce9c;" vertex="1" parent="1">
                    <mxGeometry x="605.5" y="1390" width="120" height="60" as="geometry"/>
                </mxCell>
                <mxCell id="25" style="edgeStyle=none;html=1;exitX=0.5;exitY=0;exitDx=0;exitDy=0;endArrow=none;endFill=0;" edge="1" parent="1" source="18">
                    <mxGeometry relative="1" as="geometry">
                        <mxPoint x="836" y="1320" as="targetPoint"/>
                    </mxGeometry>
                </mxCell>
                <mxCell id="18" value="录入用户人脸信息" style="rounded=1;whiteSpace=wrap;html=1;fillColor=#6c4e6f;" vertex="1" parent="1">
                    <mxGeometry x="775.5" y="1390" width="120" height="60" as="geometry"/>
                </mxCell>
                <mxCell id="19" value="" style="endArrow=none;html=1;" edge="1" parent="1">
                    <mxGeometry width="50" height="50" relative="1" as="geometry">
                        <mxPoint x="155.5" y="1320" as="sourcePoint"/>
                        <mxPoint x="835.5" y="1320" as="targetPoint"/>
                    </mxGeometry>
                </mxCell>
            </root>
        </mxGraphModel>
    </diagram>
</mxfile>